<?xml version="1.0"?>
<svg width="750" height="230" xmlns="http://www.w3.org/2000/svg" xmlns:svg="http://www.w3.org/2000/svg" xmlns:xlink="http://www.w3.org/1999/xlink" version="1.1">
 <metadata/>
 <defs>
  <symbol height="NaN" id="svg_28" version="1.1" width="NaN" xmlns="http://www.w3.org/2000/svg" xmlns:svg="http://www.w3.org/2000/svg">
   <metadata/>
   <metadata/>
   <g class="layer" display="inline">
    <title>Layer 1</title>
    <g id="svg_19" transform="translate(5 5) translate(-182 -16)">
     <g id="svg_20">
      <path d="m219.58,67.42c-8.08,-2.27 -15.9,-0.15 -16.44,10.11c-36.05,47.38 47.82,58.7 34.6,5.82c-1.76,-7.02 -10.08,-13.65 -18.16,-15.93zm-1.03,13.53c10.27,1.18 3.96,35.47 -10.62,20.9c-2.46,-2.47 -3.49,-6.77 -2.57,-10.45c1,-4 4.9,-6.44 7.71,-8.74c2.17,-1.42 4.02,-1.88 5.48,-1.71z" fill="#ce0000" id="svg_27"/>
      <path d="m269.15,55.75c-18.75,-18.61 -22.13,50.81 -12.99,59.95c10.36,10.36 26.26,-49.08 37.76,-37.57c4.87,4.86 4.47,20.71 7.92,27.62c2.66,5.32 15.04,-1.19 13.63,-6.81c-1.12,-4.48 -3.24,-8.79 -4.05,-13.63c-9.11,-54.68 -31.21,2.08 -41.63,-3.13c-2.19,-1.1 -0.36,-25.02 -0.64,-26.43z" fill="#ce0000" id="svg_26"/>
      <path d="m347.5,48.59c2.85,-5.61 4.69,-14.01 -3.14,-17.92c-14.03,-7.02 -10.05,29.4 -13.27,29.4c-1.37,0 -2.75,0 -4.12,0c-1.63,0 -3.34,-0.18 -5.02,-0.18c-5.38,0 -8.13,3.98 -5.38,9.5c2.28,4.54 10.54,-0.22 13.09,2.33c1.06,1.06 2.46,15.53 2.69,17.39c1.77,14.14 3.45,37.35 22.58,27.78c6.17,-3.08 -13.03,-30.75 -10.39,-39.97c1.5,-5.27 19.1,1.87 23.66,-2.69c0.55,-0.56 0,-4.48 0,-5.2c0,-13.18 -31.39,-0.32 -20.7,-20.44z" fill="#ce0000" id="svg_25"/>
      <path d="m395.66,68.62c-8.08,-2.28 -15.91,-0.15 -16.45,10.11c-36.04,47.38 47.83,58.7 34.6,5.82c-1.75,-7.02 -10.07,-13.66 -18.15,-15.93zm-1.03,13.53c10.27,1.18 3.95,35.47 -10.62,20.9c-2.47,-2.47 -3.49,-6.77 -2.57,-10.45c1,-4 4.9,-6.44 7.71,-8.74c2.17,-1.42 4.01,-1.88 5.48,-1.71z" fill="#ce0000" id="svg_24"/>
      <path d="m572.08,68.62c-8.08,-2.28 -15.91,-0.33 -16.45,9.93c-36.04,47.38 47.83,58.71 34.6,5.83c-1.75,-7.02 -10.07,-13.49 -18.15,-15.76zm-1.03,13.36c10.27,1.18 3.95,35.47 -10.62,20.9c-2.47,-2.47 -3.49,-6.77 -2.57,-10.45c1,-4 4.9,-6.27 7.71,-8.57c2.17,-1.42 4.01,-2.05 5.48,-1.88z" fill="#ce0000" id="svg_23"/>
      <path d="m431.45,50.12c-12.25,2.13 9.49,28.68 8.05,34.43c-4.17,16.7 -37.52,53.53 -15.58,71.08c38.33,30.66 26.14,-51.15 29.97,-54.98c2.97,-2.97 41.16,-1.93 37,-26.89c-6.02,-36.14 -40.57,-0.83 -40.94,-1.2c-3.42,-3.42 -1.84,-9.75 -4.62,-13.7c0.99,2.59 -2.76,-7.16 -6.34,-8.05c-3.3,-0.83 -5.78,-0.99 -7.54,-0.69zm37.69,22.1c7.67,1.59 11.56,17.3 -6.51,17.3c-2.12,0 -6.39,0.75 -7.54,-1.55c-2.03,-4.05 7.18,-12.93 5.83,-11.47c2.68,-3.68 5.66,-4.81 8.22,-4.28zm-25.18,26.55c10.16,1.64 -14.2,86.66 -12.68,18.67c0.34,-2.7 2.04,-9.55 6,-13.71c3.03,-3.86 5.23,-5.2 6.68,-4.96z" fill="#ce0000" id="svg_22"/>
      <path d="m502.94,71.88c-0.27,0.48 0.1,11.85 0.1,16.33c0,7.03 -4.43,27.02 8.11,22.84c14.17,-4.72 3.1,-28.71 13.67,-39.28c7.72,-7.72 26.61,11.46 20.49,-13.02c-3.39,-13.54 -21.94,4.08 -25.62,6.83c-1.33,1.01 -3.57,7.53 -6.19,4.91c-3.07,-3.07 2.68,-15.46 -0.42,-18.57c-10.41,-10.4 -10.25,11.71 -10.25,15.58c0,1.46 0.07,2.92 0.11,4.38z" fill="#ce0000" id="svg_21"/>
     </g>
    </g>
   </g>
  </symbol>
 </defs>
 <metadata/>
 <g class="layer" display="inline">
  <title>Layer 1</title>
  <g id="Layer" transform="translate(105 57) matrix(1 0 0 1 -184.06 -20.77)">MEDICINE | ONTOLOGY | INFORMATICS</g>
  <text fill="#7f7f7f" font-family="Monospace" font-size="14" font-weight="normal" id="svg_18" letter-spacing="2" stroke="#bf0000" stroke-width="0" text-anchor="middle" x="375" xml:space="preserve" y="176.67">MEDICINE | ONTOLOGY | INFORMATICS</text>
  <use id="svg_29" transform="matrix(1 0 0 1 159.14 3.57143)" xlink:href="#svg_28"/>
  <text fill="#000000" font-family="Monospace" font-size="24" font-weight="normal" id="svg_30" stroke="#000000" stroke-width="0" text-anchor="middle" x="375" xml:space="preserve" y="213.17">KNOWLEDGE ENGINEERING FOR HEALTHCARE &amp; LIFE SCIENCES</text>
  <line fill="none" id="svg_32" stroke="#bf0000" stroke-width="3" x1="30" x2="720" y1="185.69" y2="185.69"/>
 </g>
</svg>